<?xml version="1.0" encoding="UTF-8" standalone="no"?>
<svg
   version="1.1"
   x="0px"
   y="0px"
   viewBox="0 0 79.410004 79.410004"
   xml:space="preserve"
   id="svg5"
   sodipodi:docname="noun-cyber-eye-4208580-green.svg"
   width="79.410004"
   height="79.410004"
   inkscape:export-filename="noun-cyber-eye-4208580.png"
   inkscape:export-xdpi="96"
   inkscape:export-ydpi="96"
   inkscape:version="1.3 (0e150ed, 2023-07-21)"
   xmlns:inkscape="http://www.inkscape.org/namespaces/inkscape"
   xmlns:sodipodi="http://sodipodi.sourceforge.net/DTD/sodipodi-0.dtd"
   xmlns="http://www.w3.org/2000/svg"
   xmlns:svg="http://www.w3.org/2000/svg"><defs
     id="defs5" /><sodipodi:namedview
     id="namedview5"
     pagecolor="#ffffff"
     bordercolor="#000000"
     borderopacity="0.25"
     inkscape:showpageshadow="2"
     inkscape:pageopacity="0.0"
     inkscape:pagecheckerboard="0"
     inkscape:deskcolor="#d1d1d1"
     inkscape:zoom="4.4"
     inkscape:cx="65.340909"
     inkscape:cy="52.159091"
     inkscape:window-width="1392"
     inkscape:window-height="1212"
     inkscape:window-x="0"
     inkscape:window-y="25"
     inkscape:window-maximized="0"
     inkscape:current-layer="svg5" /><path
     d="M 42.83,10.17 C 42.7,10.04 42.54,9.93 42.36,9.86 42.19,9.79 42,9.75 41.81,9.75 H 34.04 C 33.49,8.14 31.97,6.96 30.17,6.96 c -2.27,0 -4.11,1.84 -4.11,4.11 0,2.27 1.84,4.11 4.11,4.11 1.72,0 3.2,-1.07 3.81,-2.58 h 7.25 l 6.45,6.45 H 36.91 c -0.58,-1.56 -2.08,-2.68 -3.84,-2.68 -2.27,0 -4.11,1.84 -4.11,4.11 0,2.27 1.84,4.11 4.11,4.11 1.76,0 3.26,-1.12 3.84,-2.68 h 13.88 0.31 14.91 c 0.79,0 1.43,-0.64 1.43,-1.43 0,-0.79 -0.64,-1.43 -1.43,-1.43 H 51.71 Z M 31.4,11.19 c -0.06,0.63 -0.58,1.14 -1.23,1.14 -0.69,0 -1.25,-0.56 -1.25,-1.25 0,-0.69 0.56,-1.25 1.25,-1.25 0.69,0 1.25,0.56 1.25,1.24 0,0.03 -0.02,0.07 -0.02,0.12 0,-0.01 0,0 0,0 z m 1.67,10.55 c -0.69,0 -1.25,-0.56 -1.25,-1.25 0,-0.69 0.56,-1.25 1.25,-1.25 0.69,0 1.25,0.56 1.25,1.25 0,0.69 -0.56,1.25 -1.25,1.25 z"
     id="path1"
     style="fill:#2ece00;fill-opacity:1" /><path
     d="M 66.02,57.47 H 51.09 50.78 36.91 c -0.58,-1.56 -2.08,-2.68 -3.84,-2.68 -2.27,0 -4.11,1.84 -4.11,4.11 0,2.27 1.84,4.11 4.11,4.11 1.76,0 3.25,-1.12 3.84,-2.68 h 10.77 l -6.45,6.45 H 33.98 C 33.37,65.27 31.9,64.2 30.17,64.2 c -2.27,0 -4.11,1.84 -4.11,4.11 0,2.27 1.84,4.11 4.11,4.11 1.8,0 3.32,-1.17 3.87,-2.79 h 7.77 c 0.19,0 0.37,-0.04 0.55,-0.11 0.18,-0.07 0.33,-0.18 0.47,-0.31 l 8.89,-8.89 h 14.3 c 0.79,0 1.43,-0.64 1.43,-1.43 0,-0.79 -0.64,-1.42 -1.43,-1.42 z m -32.95,2.67 c -0.69,0 -1.25,-0.56 -1.25,-1.25 0,-0.69 0.56,-1.25 1.25,-1.25 0.69,0 1.25,0.56 1.25,1.25 0,0.69 -0.56,1.25 -1.25,1.25 z m -2.9,9.42 c -0.69,0 -1.25,-0.56 -1.25,-1.25 0,-0.69 0.56,-1.25 1.25,-1.25 0.65,0 1.17,0.5 1.23,1.14 0,0 0,0.01 0,0.01 0,0.04 0.02,0.07 0.02,0.11 0,0.68 -0.56,1.24 -1.25,1.24 z"
     id="path2"
     style="fill:#2ece00;fill-opacity:1" /><path
     d="m 51.27,38.08 -8.89,-8.89 c -0.13,-0.13 -0.29,-0.24 -0.47,-0.31 -0.17,-0.07 -0.36,-0.11 -0.55,-0.11 h -7.83 c -0.58,-1.56 -2.08,-2.68 -3.84,-2.68 -2.27,0 -4.11,1.84 -4.11,4.11 0,2.27 1.84,4.11 4.11,4.11 1.76,0 3.25,-1.12 3.84,-2.68 h 7.24 l 8.01,8.01 -8.01,8.01 h -7.26 c -0.61,-1.51 -2.08,-2.58 -3.8,-2.58 -2.27,0 -4.11,1.84 -4.11,4.11 0,2.27 1.84,4.11 4.11,4.11 1.8,0 3.32,-1.17 3.87,-2.79 h 7.8 c 0.19,0 0.37,-0.04 0.55,-0.11 0.18,-0.07 0.33,-0.18 0.47,-0.31 l 9.15,-9.15 H 66.5 c 0.79,0 1.43,-0.64 1.43,-1.43 0,-0.79 -0.64,-1.43 -1.43,-1.43 H 51.27 Z M 29.71,31.45 c -0.69,0 -1.25,-0.56 -1.25,-1.25 0,-0.69 0.56,-1.25 1.25,-1.25 0.69,0 1.25,0.56 1.25,1.25 0,0.69 -0.56,1.25 -1.25,1.25 z m 0,18.98 c -0.69,0 -1.25,-0.56 -1.25,-1.25 0,-0.69 0.56,-1.25 1.25,-1.25 0.69,0 1.25,0.56 1.25,1.25 0,0.69 -0.56,1.25 -1.25,1.25 z"
     id="path3"
     style="fill:#2ece00;fill-opacity:1" /><path
     d="M 39.69,0 C 25.35,0 12.08,7.85 5.1,20.21 L 5.04,20.08 3.78,22.77 c 0,0.01 -0.01,0.02 -0.01,0.03 L 3.48,23.42 3.5,23.47 C 1.2,28.61 0,34.07 0,39.7 0,45.34 1.2,50.79 3.5,55.94 l -0.02,0.05 0.29,0.62 c 0,0.01 0.01,0.02 0.01,0.03 L 5.04,59.33 5.1,59.2 c 6.98,12.36 20.25,20.21 34.59,20.21 21.9,0 39.72,-17.81 39.72,-39.69 C 79.42,17.8 61.6,0 39.69,0 Z M 10,61.45 C 8.74,59.74 7.6,57.92 6.64,55.97 6.93,55.34 7.15,54.68 7.41,54.03 7.63,53.47 7.88,52.92 8.07,52.35 8.35,51.54 8.55,50.71 8.78,49.88 8.92,49.34 9.1,48.81 9.22,48.27 c 0.21,-0.93 0.34,-1.89 0.47,-2.85 0.07,-0.46 0.17,-0.91 0.22,-1.38 0.15,-1.43 0.23,-2.88 0.23,-4.35 0,-1.47 -0.08,-2.92 -0.23,-4.35 C 9.86,34.87 9.76,34.41 9.69,33.95 9.55,33 9.42,32.05 9.22,31.12 9.1,30.57 8.92,30.04 8.78,29.5 8.56,28.67 8.35,27.84 8.08,27.04 7.89,26.47 7.64,25.92 7.41,25.36 7.15,24.71 6.94,24.06 6.64,23.42 7.6,21.48 8.73,19.66 10,17.94 c 4.67,6.32 7.15,13.79 7.15,21.76 0,7.95 -2.49,15.43 -7.15,21.75 z m 29.69,15.08 c -10.81,0 -20.95,-4.82 -27.86,-12.77 5.34,-6.95 8.18,-15.23 8.18,-24.07 0,-8.84 -2.84,-17.12 -8.17,-24.06 C 18.74,7.68 28.89,2.86 39.7,2.86 60.03,2.86 76.57,19.38 76.57,39.7 76.56,60 60.02,76.53 39.69,76.53 Z"
     id="path4"
     style="fill:#2ece00;fill-opacity:1" /></svg>
