<svg width="112.207" height="92.822" viewBox="0 0 112.207 92.822"
    xmlns="http://www.w3.org/2000/svg">
    <g id="svgGroup" stroke-linecap="round" fill-rule="evenodd" font-size="9pt" stroke="#000" stroke-width="0.25mm" fill="#000" style="stroke:#000;stroke-width:0.25mm;fill:#000">
        <path d="M 13.623 60.303 L 0 60.303 A 31.954 31.954 0 0 0 0.298 64.785 Q 0.734 67.858 1.807 70.337 A 21.154 21.154 0 0 0 4.383 74.787 A 18.067 18.067 0 0 0 6.641 77.246 A 20.616 20.616 0 0 0 13.526 81.421 A 31.802 31.802 0 0 0 21.582 83.252 L 21.582 92.822 L 29.346 92.822 L 29.346 83.252 Q 33.936 82.813 37.647 81.323 A 21.032 21.032 0 0 0 42.043 78.946 A 18.348 18.348 0 0 0 43.994 77.344 Q 46.631 74.854 48.047 71.411 A 18.725 18.725 0 0 0 49.296 66.525 A 23.631 23.631 0 0 0 49.463 63.672 Q 49.463 58.984 47.925 55.542 Q 46.387 52.1 43.555 49.463 A 27.978 27.978 0 0 0 39.515 46.466 A 34.866 34.866 0 0 0 36.67 44.897 A 88.583 88.583 0 0 0 31.872 42.711 A 113.46 113.46 0 0 0 27.735 41.064 A 60.064 60.064 0 0 1 25.432 40.189 Q 23.639 39.462 22.266 38.745 Q 20.519 37.833 19.328 36.844 A 10.541 10.541 0 0 1 18.75 36.328 A 8.33 8.33 0 0 1 17.592 35.014 A 6.51 6.51 0 0 1 16.822 33.569 A 8.564 8.564 0 0 1 16.356 31.682 A 11.322 11.322 0 0 1 16.26 30.176 A 11.322 11.322 0 0 1 16.479 27.91 A 9.654 9.654 0 0 1 16.822 26.66 A 7.699 7.699 0 0 1 18.555 23.828 A 7.31 7.31 0 0 1 20.277 22.564 A 9.488 9.488 0 0 1 21.558 21.997 A 10.578 10.578 0 0 1 23.52 21.508 Q 24.615 21.338 25.879 21.338 A 11.755 11.755 0 0 1 28.301 21.579 A 9.879 9.879 0 0 1 29.81 22.021 A 8.303 8.303 0 0 1 32.862 24.023 A 9.291 9.291 0 0 1 34.319 26.114 A 12.286 12.286 0 0 1 35.059 27.881 A 14.513 14.513 0 0 1 35.645 30.42 Q 35.84 31.787 35.84 33.35 L 49.414 33.35 A 30.576 30.576 0 0 0 49.035 28.43 A 23.937 23.937 0 0 0 48.072 24.536 A 22.257 22.257 0 0 0 45.64 19.504 A 19.855 19.855 0 0 0 44.287 17.676 A 19.822 19.822 0 0 0 38.281 12.988 A 22.992 22.992 0 0 0 32.774 11.022 A 27.772 27.772 0 0 0 30.371 10.596 L 30.371 0 L 22.559 0 L 22.559 10.498 A 29.756 29.756 0 0 0 17.517 11.416 A 24.702 24.702 0 0 0 14.405 12.5 A 21.08 21.08 0 0 0 10.061 14.971 A 18.502 18.502 0 0 0 8.155 16.602 A 17.73 17.73 0 0 0 4.151 22.583 A 18.954 18.954 0 0 0 2.823 28.145 A 22.88 22.88 0 0 0 2.735 30.176 A 24.103 24.103 0 0 0 3.033 34.068 Q 3.39 36.251 4.176 38.08 A 14.726 14.726 0 0 0 4.297 38.354 A 18.084 18.084 0 0 0 8.74 44.385 A 25.773 25.773 0 0 0 12.534 47.234 A 32.933 32.933 0 0 0 15.625 48.926 A 83.383 83.383 0 0 0 20.748 51.176 A 104.623 104.623 0 0 0 24.61 52.637 A 56.99 56.99 0 0 1 26.79 53.446 Q 27.966 53.911 28.975 54.381 A 30.348 30.348 0 0 1 29.859 54.81 Q 32.031 55.908 33.399 57.227 A 8.764 8.764 0 0 1 34.811 59.049 A 7.726 7.726 0 0 1 35.327 60.132 A 8.921 8.921 0 0 1 35.821 62.064 A 11.927 11.927 0 0 1 35.938 63.77 A 9.438 9.438 0 0 1 35.594 66.342 A 8.608 8.608 0 0 1 35.327 67.139 A 7.395 7.395 0 0 1 33.545 69.824 A 8.173 8.173 0 0 1 31.639 71.177 A 10.745 10.745 0 0 1 30.176 71.802 Q 28.29 72.453 25.786 72.505 A 21.197 21.197 0 0 1 25.342 72.51 A 15.911 15.911 0 0 1 21.045 71.924 Q 18.946 71.338 17.334 69.922 Q 15.674 68.555 14.649 66.187 Q 13.804 64.235 13.655 61.503 A 22.114 22.114 0 0 1 13.623 60.303 Z M 74.414 66.309 L 80.567 60.596 L 95.557 82.422 L 112.207 82.422 L 89.502 51.611 L 109.424 29.59 L 93.115 29.59 L 78.516 45.605 L 74.414 50.293 L 74.414 7.422 L 60.84 7.422 L 60.84 82.422 L 74.414 82.422 L 74.414 66.309 Z" vector-effect="non-scaling-stroke"/>
    </g>
</svg>
